<svg width="450" height="450" xmlns="http://www.w3.org/2000/svg">
	<defs>
		<filter id="drop-shadow" y="-100%" x="-100%" height="300%" width="300%">
			<feGaussianBlur in="SourceAlpha" stdDeviation="5" />
			<feOffset dx="5" dy="5" result="offsetblur" />
			<feFlood flood-color="#a2a2a2" flood-opacity="1" />
			<feComposite in2="offsetblur" operator="in" />
			<feMerge>
				<feMergeNode in="offsetBlur" />
				<feMergeNode in="SourceGraphic" />
			</feMerge>
		</filter>
	</defs>
	<g id="svg_1" filter="url(#drop-shadow)">
		<g id="svg_12">
			<g id="svg_8">
				<path id="svg_10" d="m49.69954,197.277421c-0.309,0.359 -0.88,0.837 -1.269,1.064c-0.524,0.307 -0.765,0.61 -0.931,1.174c-0.126,0.426 -0.536,1.063 -0.934,1.449c-0.391,0.379 -0.71,0.86 -0.71,1.07c0,0.209 -0.211,0.592 -0.469,0.85c-0.284,0.284 -0.469,0.682 -0.469,1.011c0,0.298 -0.169,0.737 -0.375,0.975c-0.326,0.376 -0.489,1.032 -0.389,1.573c0.017,0.091 -0.131,0.344 -0.329,0.562c-0.275,0.302 -0.384,0.776 -0.459,1.99c-0.103,1.657 -0.258,2.313 -0.51,2.157c-0.081,-0.05 -0.207,0.731 -0.279,1.736c-0.147,2.067 -0.071,4.92 0.132,4.921c0.074,0 0.085,0.13 0.024,0.289c-0.061,0.158 0.037,0.451 0.217,0.649c0.241,0.267 0.352,0.81 0.424,2.072c0.067,1.162 0.177,1.741 0.343,1.805c0.221,0.085 0.424,0.923 0.502,2.077c0.016,0.232 0.12,0.422 0.232,0.422c0.111,0 0.359,0.38 0.551,0.844c0.191,0.464 0.418,0.844 0.504,0.844c0.085,0 0.208,0.211 0.273,0.469c0.065,0.257 0.194,0.468 0.289,0.468c0.094,0 0.543,0.57 0.999,1.266c0.456,0.696 1.319,1.744 1.918,2.328c0.6,0.584 1.367,1.364 1.705,1.734c0.337,0.37 0.662,0.673 0.721,0.673c0.132,0 1.196,1.126 1.196,1.266c0,0.055 4.971,5.07 11.047,11.145c6.076,6.074 11.185,11.255 11.354,11.512c0.179,0.274 0.4,0.414 0.533,0.338c0.124,-0.071 0.163,-0.061 0.087,0.023c-0.174,0.193 3.787,4.221 4.152,4.221c0.148,0 0.21,0.059 0.137,0.131c-0.163,0.164 3.819,4.182 4.145,4.182c0.13,0 0.237,0.11 0.237,0.244c0,0.31 1.158,1.444 1.474,1.444c0.13,0 0.195,0.066 0.145,0.147c-0.111,0.18 2.307,2.591 2.533,2.525c0.089,-0.026 0.162,0.049 0.162,0.167c0,0.279 88.022,88.3 88.301,88.3c0.117,0 0.191,0.073 0.166,0.162c-0.066,0.226 2.345,2.643 2.525,2.532c0.081,-0.05 0.147,0.024 0.147,0.165c0,0.312 1.149,1.454 1.462,1.454c0.124,0 0.226,0.107 0.226,0.238c0,0.326 4.018,4.308 4.181,4.144c0.073,-0.072 0.132,-0.007 0.132,0.145c0,0.326 1.138,1.474 1.462,1.474c0.124,0 0.204,0.073 0.179,0.162c-0.066,0.226 2.345,2.644 2.525,2.532c0.081,-0.05 0.147,0.037 0.147,0.194c0,0.156 0.3,0.52 0.667,0.808c0.368,0.288 5.501,5.355 11.407,11.259c5.907,5.905 10.803,10.737 10.88,10.737c0.156,0 1.237,1.04 1.237,1.19c0,0.116 1.123,1.247 1.237,1.247c0.046,0 0.652,0.57 1.346,1.267c0.694,0.696 1.747,1.583 2.34,1.971c0.593,0.387 1.078,0.788 1.078,0.89c0,0.102 0.115,0.186 0.256,0.186c0.141,0 0.467,0.166 0.725,0.369c0.258,0.202 0.511,0.327 0.561,0.276c0.051,-0.05 0.199,0.037 0.33,0.194c0.13,0.157 0.353,0.286 0.495,0.286c0.142,0 0.259,0.11 0.259,0.244c0,0.151 0.272,0.261 0.708,0.287c0.979,0.058 1.831,0.318 1.784,0.544c-0.022,0.108 0.565,0.228 1.361,0.279c1.007,0.065 1.507,0.187 1.784,0.438c0.557,0.504 9.392,0.583 9.083,0.081c-0.108,-0.174 1.422,-0.521 2.284,-0.518c0.328,0.001 0.847,-0.176 1.154,-0.395c0.349,-0.248 0.845,-0.398 1.319,-0.398c0.506,0 0.874,-0.119 1.097,-0.357c0.184,-0.196 0.546,-0.386 0.804,-0.421c0.258,-0.036 0.662,-0.255 0.899,-0.487c0.237,-0.233 0.602,-0.422 0.812,-0.422c0.21,0 0.705,-0.338 1.102,-0.751c0.452,-0.47 0.89,-0.75 1.175,-0.75c1.568,0 3.41,-3.308 2.542,-4.565c-0.607,-0.878 -14.649,-14.933 -14.922,-14.935c-0.129,-0.002 -0.214,-0.066 -0.188,-0.143c0.076,-0.231 -0.767,-1.547 -0.99,-1.547c-0.263,0 -1.533,-0.942 -1.761,-1.306c-0.301,-0.481 -1.609,-1.778 -1.609,-1.595c0,0.096 -0.205,-0.119 -0.456,-0.478c-0.25,-0.359 -1.593,-1.771 -2.984,-3.138c-1.39,-1.367 -2.49,-2.485 -2.444,-2.485c0.046,0 -0.27,-0.316 -0.701,-0.703c-0.929,-0.832 -1.28,-1.179 -1.683,-1.66c-0.319,-0.381 -3.019,-2.918 -3.778,-3.549c-0.251,-0.209 -0.512,-0.589 -0.581,-0.844c-0.068,-0.255 -0.424,-0.675 -0.792,-0.933c-0.367,-0.257 -0.779,-0.57 -0.916,-0.694c-0.136,-0.124 -0.292,-0.181 -0.346,-0.126c-0.055,0.054 -0.152,-0.066 -0.216,-0.268c-0.064,-0.202 -0.557,-0.779 -1.095,-1.284c-0.538,-0.504 -1.211,-1.196 -1.495,-1.537c-0.283,-0.341 -0.516,-0.55 -0.517,-0.465c0,0.085 -0.16,-0.086 -0.354,-0.381c-0.195,-0.295 -0.595,-0.695 -0.89,-0.89c-0.295,-0.194 -0.466,-0.354 -0.381,-0.354c0.085,-0.001 -0.084,-0.202 -0.376,-0.448c-0.292,-0.246 -1.459,-1.352 -2.593,-2.459c-2.496,-2.436 -2.698,-2.617 -3.234,-2.892c-0.232,-0.119 -0.422,-0.34 -0.422,-0.49c0,-0.318 -0.61,-1.091 -1.396,-1.769c-0.895,-0.771 -1.622,-1.552 -1.53,-1.645c0.125,-0.124 -1.627,-1.731 -1.891,-1.735c-0.123,-0.001 -0.578,-0.423 -1.011,-0.936c-0.432,-0.513 -0.942,-0.982 -1.132,-1.043c-0.19,-0.06 -0.326,-0.174 -0.303,-0.253c0.037,-0.122 -5.084,-5.458 -6.115,-6.373c-1.143,-1.014 -5.818,-5.768 -5.787,-5.884c0.02,-0.078 -0.041,-0.141 -0.138,-0.141c-0.096,0 -0.23,-0.174 -0.297,-0.387c-0.068,-0.213 -0.518,-0.63 -1,-0.926c-0.483,-0.297 -1.332,-1.049 -1.887,-1.67c-0.556,-0.621 -1.07,-1.093 -1.142,-1.049c-0.072,0.045 -0.231,-0.106 -0.353,-0.336c-0.123,-0.229 -1.219,-1.407 -2.437,-2.619c-1.217,-1.211 -2.194,-2.202 -2.17,-2.202c0.059,0 -3.265,-3.306 -5.241,-5.214c-0.887,-0.856 -1.613,-1.494 -1.613,-1.418c0,0.077 -0.169,-0.042 -0.375,-0.263c-0.206,-0.222 -0.375,-0.518 -0.375,-0.658c0,-0.319 -0.991,-1.448 -1.271,-1.448c-0.187,0 -1.928,-1.681 -4.199,-4.055c-2.195,-2.294 -6.966,-6.864 -7.516,-7.199c-0.335,-0.205 -0.54,-0.372 -0.456,-0.373c0.085,0 0.043,-0.117 -0.094,-0.261c-0.136,-0.143 -0.416,-0.5 -0.622,-0.792c-0.526,-0.745 -1.238,-1.398 -1.735,-1.589c-0.232,-0.089 -0.422,-0.291 -0.422,-0.448c0,-0.157 -0.148,-0.457 -0.328,-0.666c-0.598,-0.692 -1.639,-1.681 -1.771,-1.682c-0.071,0 -3.283,-3.165 -7.138,-7.033c-3.855,-3.868 -7.106,-7.032 -7.225,-7.032c-0.125,0 -0.166,-0.132 -0.097,-0.312c0.077,-0.201 0.047,-0.267 -0.086,-0.185c-0.117,0.073 -0.262,-0.055 -0.337,-0.298c-0.151,-0.485 -1.159,-1.456 -1.512,-1.456c-0.13,0 -0.591,-0.42 -1.023,-0.933c-0.433,-0.513 -0.943,-0.982 -1.133,-1.043c-0.19,-0.06 -0.326,-0.173 -0.303,-0.252c0.024,-0.078 -1.075,-1.272 -2.441,-2.654c-1.367,-1.382 -2.485,-2.584 -2.485,-2.671c0,-0.086 -0.067,-0.116 -0.148,-0.066c-0.082,0.05 -0.312,-0.152 -0.511,-0.449c-0.2,-0.297 -0.553,-0.642 -0.786,-0.766c-0.232,-0.124 -0.611,-0.502 -0.842,-0.839c-0.231,-0.337 -0.486,-0.572 -0.567,-0.522c-0.08,0.05 -0.146,0.013 -0.146,-0.082c0,-0.096 -0.69,-0.839 -1.533,-1.652c-0.842,-0.814 -1.816,-1.753 -2.162,-2.088c-0.347,-0.336 -0.713,-0.61 -0.812,-0.61c-0.1,0 -0.182,-0.126 -0.182,-0.279c0,-0.416 -1.636,-2.273 -1.831,-2.078c-0.07,0.07 -0.891,-0.738 -3.185,-3.136c-0.645,-0.674 -1.172,-1.189 -1.172,-1.145c0,0.045 -0.317,-0.261 -0.703,-0.678c-0.387,-0.418 -1.161,-1.2 -1.72,-1.738c-0.558,-0.538 -1.541,-1.485 -2.184,-2.104c-0.642,-0.619 -1.577,-1.519 -2.078,-2.001c-0.5,-0.482 -1.079,-1.113 -1.285,-1.402c-0.509,-0.714 -1.212,-1.364 -1.806,-1.672c-0.271,-0.141 -0.544,-0.39 -0.607,-0.554c-0.078,-0.202 -0.04,-0.255 0.118,-0.165c0.127,0.073 -0.021,-0.147 -0.331,-0.489c-1.027,-1.136 -1.217,-1.312 -1.411,-1.312c-0.177,0 -8.053,-7.841 -9.103,-9.063c-0.251,-0.291 -0.456,-0.493 -0.456,-0.447c0,0.045 -1.034,-0.95 -2.297,-2.21c-1.264,-1.261 -2.478,-2.386 -2.698,-2.501c-0.22,-0.115 -0.454,-0.424 -0.52,-0.687c-0.131,-0.519 -1.358,-1.782 -1.731,-1.782c-0.127,0 -0.539,-0.376 -0.916,-0.836c-0.377,-0.461 -0.845,-0.888 -1.04,-0.95c-0.195,-0.061 -0.335,-0.181 -0.311,-0.266c0.023,-0.084 -1.181,-1.382 -2.676,-2.885c-1.496,-1.503 -2.9,-2.926 -3.121,-3.164c-0.22,-0.237 -0.741,-0.74 -1.157,-1.118c-0.416,-0.377 -0.738,-0.715 -0.715,-0.75c0.023,-0.035 -0.152,-0.251 -0.389,-0.479c-0.238,-0.228 -0.432,-0.383 -0.432,-0.344c0,0.039 -0.78,-0.711 -1.734,-1.668c-0.955,-0.956 -1.932,-1.841 -2.172,-1.967c-0.253,-0.133 -0.394,-0.339 -0.336,-0.491c0.056,-0.144 -0.007,-0.327 -0.14,-0.408c-0.132,-0.08 -0.296,-0.295 -0.363,-0.478c-0.067,-0.183 -0.304,-0.4 -0.526,-0.482c-0.438,-0.162 -4.855,-4.495 -4.855,-4.763c0,-0.09 -0.064,-0.132 -0.141,-0.094c-0.077,0.039 -0.328,-0.125 -0.556,-0.364c-0.228,-0.239 -0.378,-0.434 -0.333,-0.434c0.045,0 -0.515,-0.569 -1.244,-1.266c-0.73,-0.696 -1.9,-1.814 -2.6,-2.484c-2.336,-2.235 -2.669,-2.532 -2.835,-2.532c-0.09,0 -0.344,-0.338 -0.564,-0.75c-0.455,-0.853 -1.294,-1.669 -2.074,-2.014c-0.291,-0.129 -0.53,-0.287 -0.53,-0.351c0,-1.023 -1.764,-1.334 -2.532,-0.446m-0.196,70.161c-0.253,0.273 -0.46,0.695 -0.46,0.938c0,0.243 -0.079,0.441 -0.175,0.441c-0.096,0 -0.224,0.154 -0.283,0.342c-0.06,0.187 -0.53,0.778 -1.044,1.312c-0.515,0.534 -0.936,1.142 -0.936,1.352c0,0.21 -0.123,0.429 -0.274,0.487c-0.276,0.106 -0.517,0.631 -0.572,1.246c-0.016,0.182 -0.185,0.446 -0.376,0.585c-0.191,0.139 -0.377,0.479 -0.414,0.754c-0.036,0.275 -0.232,0.666 -0.434,0.868c-0.242,0.242 -0.368,0.623 -0.368,1.111c0,0.516 -0.122,0.856 -0.399,1.114c-0.307,0.286 -0.395,0.58 -0.381,1.273c0.012,0.583 -0.129,1.2 -0.398,1.746c-0.574,1.164 -0.644,8.442 -0.085,8.854c0.223,0.164 0.357,0.593 0.42,1.347c0.051,0.608 0.188,1.22 0.304,1.36c0.115,0.139 0.151,0.253 0.08,0.253c-0.072,0 0.002,0.133 0.164,0.295c0.162,0.162 0.295,0.595 0.295,0.962c0,0.42 0.131,0.781 0.352,0.973c0.22,0.191 0.386,0.647 0.443,1.219c0.058,0.579 0.204,0.977 0.398,1.086c0.169,0.095 0.307,0.263 0.307,0.375c0,0.112 0.17,0.35 0.377,0.53c0.207,0.18 0.482,0.622 0.61,0.983c0.128,0.361 0.57,1.037 0.982,1.504c1.459,1.648 1.782,2.053 1.782,2.23c0,0.099 0.068,0.137 0.152,0.085c0.084,-0.051 0.442,0.245 0.797,0.658c0.355,0.414 2.776,2.895 5.38,5.513c2.604,2.618 4.735,4.806 4.735,4.862c0,0.171 3,3.139 3.008,2.976c0.004,-0.084 0.131,0.073 0.281,0.349c0.15,0.277 0.44,0.556 0.645,0.621c0.204,0.065 0.352,0.181 0.329,0.258c-0.056,0.182 64.782,65.018 64.963,64.961c0.075,-0.024 0.19,0.124 0.255,0.329c0.065,0.204 0.345,0.495 0.621,0.645c0.277,0.15 0.436,0.276 0.355,0.28c-0.229,0.012 2.249,2.446 2.49,2.446c0.116,0 0.16,0.084 0.096,0.187c-0.064,0.103 -0.023,0.188 0.09,0.188c0.113,0 2.441,2.236 5.173,4.969c2.732,2.734 5.054,4.97 5.161,4.97c0.106,0 0.133,0.097 0.06,0.216c-0.076,0.123 -0.053,0.166 0.055,0.1c0.226,-0.14 1.053,0.687 0.871,0.87c-0.07,0.07 -0.002,0.127 0.152,0.127c0.153,0 0.453,0.189 0.666,0.421c0.835,0.908 2.397,2.122 3.015,2.343c0.357,0.128 0.797,0.402 0.977,0.609c0.179,0.208 0.418,0.377 0.529,0.377c0.112,0 0.275,0.128 0.363,0.285c0.164,0.294 0.616,0.429 1.673,0.5c0.336,0.023 0.576,0.076 0.533,0.119c-0.179,0.179 1.186,1.035 1.685,1.057c0.103,0.004 0.232,0.067 0.286,0.138c0.054,0.071 0.764,0.166 1.578,0.21c1.159,0.063 1.536,0.155 1.733,0.424c0.369,0.505 8.716,0.584 8.405,0.079c-0.16,-0.258 0.514,-0.407 2.25,-0.497c1.267,-0.067 1.747,-0.165 1.924,-0.395c0.129,-0.169 0.461,-0.337 0.737,-0.374c0.277,-0.037 0.645,-0.232 0.818,-0.432c0.21,-0.241 0.557,-0.364 1.032,-0.364c0.562,0 0.943,-0.177 1.76,-0.817c0.574,-0.45 1.229,-0.876 1.456,-0.948c0.227,-0.071 0.839,-0.547 1.36,-1.057c0.522,-0.511 1.032,-0.928 1.135,-0.928c0.102,0 0.186,-0.085 0.186,-0.188c0,-0.103 0.16,-0.187 0.355,-0.187c0.58,0 1.571,-1.045 1.426,-1.503c-0.068,-0.213 -8.808,-9.073 -19.424,-19.689c-10.615,-10.615 -19.3,-19.383 -19.3,-19.483c0,-0.1 -0.16,-0.232 -0.355,-0.294c-0.195,-0.062 -0.4,-0.287 -0.456,-0.5c-0.056,-0.214 -0.192,-0.333 -0.302,-0.264c-0.11,0.068 -0.2,0.037 -0.2,-0.069c0,-0.106 -0.928,-1.127 -2.063,-2.268c-1.134,-1.141 -2.063,-2.009 -2.063,-1.928c-0.001,0.081 -0.171,-0.132 -0.378,-0.472c-0.208,-0.34 -0.46,-0.567 -0.562,-0.505c-0.102,0.063 -0.185,0.026 -0.185,-0.082c0,-0.253 -3.329,-3.576 -3.582,-3.576c-0.105,0 -0.138,-0.084 -0.075,-0.187c0.064,-0.103 -0.093,-0.282 -0.348,-0.398c-0.255,-0.116 -0.507,-0.378 -0.561,-0.582c-0.053,-0.204 -0.187,-0.316 -0.297,-0.248c-0.11,0.068 -0.2,0.04 -0.2,-0.062c0,-0.243 -3.988,-4.25 -4.172,-4.193c-0.078,0.024 -0.141,-0.041 -0.141,-0.146c0,-0.243 -4.281,-4.498 -4.526,-4.498c-0.101,0 -0.132,-0.085 -0.068,-0.188c0.064,-0.104 -0.089,-0.266 -0.339,-0.361c-0.25,-0.095 -0.502,-0.357 -0.561,-0.581c-0.059,-0.226 -0.196,-0.353 -0.307,-0.285c-0.11,0.068 -0.2,0.043 -0.2,-0.056c0,-0.099 -0.928,-1.121 -2.063,-2.272c-1.134,-1.15 -2.063,-2.041 -2.063,-1.98c0,0.061 -0.118,0.003 -0.263,-0.13c-0.145,-0.133 -0.252,-0.284 -0.238,-0.336c0.042,-0.155 -4.009,-4.126 -4.21,-4.126c-0.103,0 -0.134,-0.085 -0.07,-0.188c0.064,-0.104 -0.036,-0.248 -0.223,-0.32c-0.187,-0.071 -12.123,-11.906 -26.524,-26.299c-28.448,-28.432 -34.046,-33.952 -34.434,-33.952c-0.139,0 -0.46,0.223 -0.713,0.496" fill="#f4f4f4" fill-rule="evenodd"/>
				<path id="svg_9" d="m49.59154,197.113421c-0.418,0.454 -0.422,0.477 -0.054,0.286c0.219,-0.114 0.449,-0.336 0.509,-0.494c0.154,-0.4 0.068,-0.361 -0.455,0.208m2.493,0.439c0.236,0.378 0.522,0.508 0.522,0.237c0,-0.079 -0.171,-0.249 -0.379,-0.38c-0.352,-0.219 -0.362,-0.209 -0.143,0.143m1.78,1.27c0.317,0.284 0.763,0.874 0.991,1.313c0.228,0.438 0.454,0.797 0.502,0.797c0.116,0 -0.13,-0.762 -0.329,-1.017c-0.603,-0.772 -1.416,-1.609 -1.564,-1.609c-0.096,0 0.084,0.232 0.4,0.516m-7.4,1.963c-0.232,0.112 -0.422,0.277 -0.422,0.367c0,0.09 0.211,0.025 0.469,-0.144c0.688,-0.45 0.664,-0.565 -0.047,-0.223m9.541,0.472c0.356,0.45 0.993,0.97 1.08,0.883c0.079,-0.078 -1.081,-1.208 -1.24,-1.208c-0.053,0 0.019,0.146 0.16,0.325m-11.546,3.279c-0.42,0.601 -0.36,0.844 0.083,0.334c0.35,-0.403 0.485,-0.75 0.292,-0.75c-0.046,0 -0.214,0.187 -0.375,0.416m17,1.912c0.373,0.353 0.661,0.669 0.639,0.704c-0.023,0.034 0.153,0.249 0.391,0.477c0.237,0.229 0.431,0.36 0.431,0.292c0,-0.067 0.124,0.041 0.275,0.242c0.152,0.2 0.278,0.297 0.282,0.215c0.008,-0.199 -2.335,-2.571 -2.539,-2.571c-0.087,0 0.147,0.289 0.521,0.641m-18.171,2.454c0.001,0.619 0.036,0.849 0.077,0.512c0.042,-0.337 0.041,-0.843 -0.002,-1.125c-0.042,-0.282 -0.076,-0.006 -0.075,0.613m-0.758,3.281c0,0.465 0.037,0.654 0.082,0.422c0.044,-0.232 0.044,-0.611 0,-0.844c-0.045,-0.232 -0.082,-0.042 -0.082,0.422m24.719,0.114c0.138,0.165 0.452,0.377 0.698,0.471c0.246,0.093 0.492,0.338 0.545,0.543c0.054,0.205 0.177,0.373 0.274,0.373c0.098,0 0.133,0.072 0.078,0.16c-0.054,0.087 0.032,0.32 0.191,0.515c0.159,0.196 0.236,0.251 0.171,0.122c-0.066,-0.128 -0.154,-0.416 -0.197,-0.638c-0.091,-0.477 -0.804,-1.285 -1.132,-1.285c-0.126,0 -0.277,-0.126 -0.337,-0.281c-0.059,-0.155 -0.205,-0.281 -0.324,-0.281c-0.15,0 -0.139,0.093 0.033,0.301m5.65,5.774c0.133,0.144 0.284,0.244 0.335,0.222c0.052,-0.021 0.281,0.156 0.509,0.395c0.229,0.239 0.376,0.434 0.328,0.434c-0.048,0 0.261,0.338 0.686,0.75c0.425,0.413 0.84,0.75 0.922,0.75c0.083,0 0.327,0.287 0.544,0.638c0.335,0.542 0.949,1.038 0.949,0.766c0,-0.193 -4.104,-4.217 -4.301,-4.217c-0.148,0 -0.139,0.081 0.028,0.262m-30.232,0.653c0,0.116 0.078,0.21 0.174,0.21c0.095,0 0.212,0.148 0.259,0.329c0.073,0.277 0.089,0.28 0.108,0.023c0.012,-0.168 -0.105,-0.411 -0.26,-0.539c-0.194,-0.161 -0.281,-0.168 -0.281,-0.023m0.622,2.273c0,0.671 0.035,0.945 0.076,0.61c0.042,-0.335 0.042,-0.884 0,-1.219c-0.041,-0.335 -0.076,-0.061 -0.076,0.609m2.753,7.026c0,0.151 0.163,0.362 0.363,0.469c0.199,0.106 0.416,0.362 0.481,0.569c0.066,0.206 0.202,0.375 0.303,0.375c0.101,0 -0.077,-0.38 -0.396,-0.844c-0.622,-0.904 -0.751,-1.001 -0.751,-0.569m37.309,0.559c0.535,0.569 0.654,0.607 0.397,0.126c-0.104,-0.194 -0.337,-0.41 -0.518,-0.479c-0.245,-0.094 -0.215,-0.004 0.121,0.353m1.418,1.011c0.308,0.326 0.636,0.593 0.73,0.593c0.233,0 -0.452,-0.738 -0.915,-0.985c-0.254,-0.136 -0.195,-0.01 0.185,0.392m-37.414,0.206c0,0.126 2.624,2.825 2.746,2.825c0.184,0 -0.045,-0.266 -1.339,-1.552c-0.774,-0.768 -1.407,-1.341 -1.407,-1.273m38.313,0.825c0.072,0.188 0.131,0.418 0.131,0.509c0,0.091 0.175,0.259 0.389,0.374c0.364,0.194 0.374,0.18 0.158,-0.224c-0.333,-0.622 -0.856,-1.132 -0.678,-0.659m-34.375,3.205c0,0.149 1.171,1.25 1.248,1.173c0.088,-0.088 -0.967,-1.253 -1.135,-1.253c-0.062,0 -0.113,0.036 -0.113,0.08m39.346,1.942c0.278,0.287 0.537,0.501 0.576,0.475c0.04,-0.026 0.314,0.257 0.61,0.629c0.295,0.372 0.537,0.584 0.537,0.472c0,-0.244 -1.82,-2.097 -2.06,-2.097c-0.091,0 0.06,0.234 0.337,0.521m-32.618,4.964c2.101,2.241 16.754,16.852 16.827,16.779c0.047,-0.047 -3.856,-4.02 -8.674,-8.83c-7.971,-7.96 -10.21,-10.142 -8.153,-7.949m41.655,4.164c0.529,0.577 1.106,0.934 1.261,0.779c0.057,-0.057 -0.119,-0.189 -0.391,-0.292c-0.272,-0.103 -0.495,-0.272 -0.495,-0.374c0,-0.102 -0.19,-0.284 -0.422,-0.405c-0.404,-0.21 -0.402,-0.198 0.047,0.292m1.503,0.994c0.005,0.207 0.935,1.052 0.935,0.849c0,-0.095 -0.211,-0.357 -0.469,-0.581c-0.258,-0.224 -0.468,-0.345 -0.466,-0.268m1.221,1.574c0.044,0.227 0.177,0.504 0.295,0.615c0.161,0.15 0.164,0.101 0.011,-0.196c-0.112,-0.219 -0.159,-0.443 -0.104,-0.497c0.054,-0.055 0.014,-0.153 -0.091,-0.218c-0.114,-0.07 -0.158,0.048 -0.111,0.296m1.192,1.174c0.337,0.249 0.739,0.608 0.894,0.797c0.154,0.19 0.219,0.218 0.143,0.064c-0.239,-0.489 -1.098,-1.302 -1.38,-1.308c-0.149,-0.003 0.005,0.199 0.343,0.447m2.554,2.767c0.309,0.378 0.671,0.735 0.804,0.794c0.409,0.18 0.004,-0.356 -0.711,-0.942l-0.656,-0.538l0.563,0.686m2.045,2.005c0.396,0.447 0.486,0.487 0.486,0.221c0,-0.1 -0.19,-0.281 -0.422,-0.402c-0.419,-0.221 -0.42,-0.22 -0.064,0.181m3.067,2.865c0.483,0.592 1.545,1.664 1.545,1.56c0,-0.05 0.251,0.185 0.557,0.522c0.306,0.336 0.559,0.554 0.563,0.482c0.006,-0.155 -2.726,-2.964 -2.883,-2.964c-0.06,0 0.038,0.18 0.218,0.4m6.774,6.517c0.195,0.195 0.442,0.511 0.549,0.702c0.107,0.191 0.247,0.296 0.31,0.232c0.137,-0.137 -0.794,-1.288 -1.042,-1.288c-0.094,0 -0.011,0.16 0.183,0.354m1.979,2.439c0.069,0.113 0.301,0.299 0.514,0.413c0.277,0.148 0.351,0.149 0.26,0.002c-0.07,-0.113 -0.301,-0.299 -0.514,-0.412c-0.278,-0.149 -0.351,-0.15 -0.26,-0.003m-69.28,1.823c0,0.103 0.548,0.72 1.219,1.371c0.67,0.651 1.219,1.132 1.219,1.068c0,-0.063 -0.549,-0.68 -1.219,-1.37c-0.671,-0.691 -1.219,-1.172 -1.219,-1.069m72.566,1.233c0.21,0.226 0.383,0.484 0.383,0.574c0,0.089 0.066,0.122 0.146,0.072c0.081,-0.05 0.336,0.185 0.567,0.522c0.231,0.337 0.61,0.715 0.842,0.839c0.233,0.124 0.587,0.471 0.788,0.769c0.201,0.299 0.401,0.507 0.446,0.463c0.044,-0.044 0.191,0.066 0.327,0.245c0.136,0.179 0.25,0.261 0.253,0.183c0.007,-0.17 -3.838,-4.077 -4.013,-4.077c-0.067,0 0.051,0.184 0.261,0.41m-74.496,0.058c-0.073,0.207 -0.189,0.501 -0.257,0.653c-0.089,0.199 -0.031,0.185 0.201,-0.047c0.179,-0.179 0.295,-0.472 0.257,-0.653c-0.06,-0.29 -0.083,-0.284 -0.201,0.047m-1.267,1.79c-0.433,0.417 -0.749,0.797 -0.701,0.845c0.088,0.088 0.949,-0.683 1.436,-1.285c0.459,-0.568 0.074,-0.337 -0.735,0.44m6.754,0.461c0.342,0.473 1.318,1.42 1.318,1.28c0,-0.058 -0.357,-0.454 -0.795,-0.88c-0.437,-0.427 -0.672,-0.606 -0.523,-0.4m-7.921,1.145c-0.076,0.075 -0.137,0.266 -0.137,0.424c0,0.211 0.055,0.232 0.209,0.079c0.114,-0.115 0.176,-0.306 0.136,-0.425c-0.039,-0.118 -0.133,-0.154 -0.208,-0.078m16.531,7.387c3.003,2.991 5.514,5.439 5.579,5.439c0.064,0 -2.33,-2.448 -5.321,-5.439c-2.991,-2.991 -5.502,-5.438 -5.579,-5.438c-0.078,0 2.317,2.447 5.321,5.438m70.412,-0.591c0.493,0.515 1.381,0.961 1.142,0.574c-0.058,-0.094 -0.224,-0.17 -0.369,-0.17c-0.145,0 -0.349,-0.159 -0.453,-0.353c-0.104,-0.194 -0.338,-0.411 -0.522,-0.481c-0.22,-0.085 -0.152,0.061 0.202,0.43m-90.037,1.154c0,0.361 0.039,0.509 0.086,0.328c0.047,-0.18 0.047,-0.476 0,-0.656c-0.047,-0.181 -0.086,-0.033 -0.086,0.328m91.471,-0.194c0,0.099 0.19,0.28 0.422,0.402c0.419,0.22 0.42,0.219 0.064,-0.181c-0.396,-0.447 -0.486,-0.488 -0.486,-0.221m-64.47,7.012c0.958,0.964 1.777,1.723 1.82,1.686c0.104,-0.088 -3.221,-3.435 -3.414,-3.438c-0.081,-0.002 0.636,0.787 1.594,1.752m70.788,-0.337c0.569,0.574 1.08,0.998 1.136,0.942c0.114,-0.114 -1.792,-1.985 -2.022,-1.985c-0.082,0 0.317,0.47 0.886,1.043m-68.765,2.223c0,0.167 6.322,6.486 6.489,6.486c0.071,0 -0.79,-0.926 -1.914,-2.057c-3.411,-3.434 -4.575,-4.561 -4.575,-4.429m-28.851,4.338c0.036,0.185 0.172,0.357 0.304,0.384c0.131,0.026 0.152,0.005 0.046,-0.048c-0.107,-0.052 -0.15,-0.167 -0.096,-0.254c0.054,-0.087 0.004,-0.217 -0.11,-0.288c-0.13,-0.08 -0.185,-0.002 -0.144,0.206m106.195,2.136c0.303,0.316 0.64,0.578 0.75,0.582c0.292,0.011 1.33,0.957 1.586,1.446c0.121,0.232 0.323,0.42 0.448,0.419c0.143,-0.002 0.123,-0.071 -0.053,-0.185c-0.155,-0.1 -0.202,-0.183 -0.105,-0.184c0.097,-0.002 -0.231,-0.383 -0.729,-0.847c-0.499,-0.464 -1.018,-0.844 -1.155,-0.844c-0.137,0 -0.334,-0.159 -0.438,-0.353c-0.103,-0.194 -0.338,-0.411 -0.522,-0.481c-0.215,-0.083 -0.138,0.075 0.218,0.447m-105.474,0.119c0,0.199 0.58,0.688 0.688,0.58c0.059,-0.058 -0.024,-0.237 -0.183,-0.397c-0.298,-0.298 -0.505,-0.373 -0.505,-0.183m41.563,6.992c3.802,3.802 6.949,6.881 6.993,6.843c0.108,-0.093 -13.539,-13.746 -13.744,-13.751c-0.089,-0.002 2.949,3.107 6.751,6.908m-40.512,-4.396c0.063,0.164 0.197,0.297 0.298,0.297c0.246,0 0.092,-0.426 -0.189,-0.519c-0.137,-0.046 -0.179,0.04 -0.109,0.222m107.435,0.485c0.064,0.103 0.219,0.187 0.344,0.187c0.264,0 1.154,0.805 1.766,1.598c0.232,0.301 0.421,0.453 0.421,0.338c0,-0.341 -1.572,-1.901 -2.13,-2.113c-0.33,-0.126 -0.475,-0.129 -0.401,-0.01m-106.477,0.75c0.054,0.206 0.172,0.375 0.263,0.375c0.196,0 0.203,-0.06 0.052,-0.453c-0.165,-0.431 -0.431,-0.365 -0.315,0.078m109.293,2.058c-0.066,0.106 -0.033,0.192 0.073,0.192c0.106,0 0.506,0.275 0.889,0.61c0.383,0.335 0.618,0.472 0.522,0.304c-0.301,-0.526 -1.357,-1.313 -1.484,-1.106m-107.739,0.133c0,0.259 1.132,1.56 1.356,1.56c0.101,0 0.007,-0.19 -0.208,-0.422c-0.216,-0.232 -0.562,-0.625 -0.77,-0.873c-0.208,-0.248 -0.378,-0.367 -0.378,-0.265m2.261,2.388c-0.012,0.194 0.024,0.235 1.848,2.172c0.729,0.774 1.326,1.342 1.327,1.262c0.001,-0.079 -0.483,-0.636 -1.076,-1.238c-0.593,-0.602 -1.306,-1.381 -1.584,-1.731c-0.278,-0.351 -0.51,-0.56 -0.515,-0.465m111.285,2.953c0.275,0.326 0.724,0.769 0.998,0.984c0.274,0.216 0.73,0.645 1.012,0.954c0.283,0.31 0.516,0.504 0.519,0.433c0.007,-0.166 -2.732,-2.964 -2.901,-2.964c-0.07,0 0.098,0.267 0.372,0.593m-107.92,0.662c0,0.083 1.603,1.748 3.563,3.699c1.96,1.952 3.563,3.49 3.563,3.418c0,-0.071 -1.603,-1.736 -3.563,-3.699c-1.96,-1.963 -3.563,-3.501 -3.563,-3.418m44.861,7.441c2.607,2.617 4.776,4.726 4.82,4.687c0.102,-0.091 -9.218,-9.437 -9.414,-9.442c-0.08,-0.002 1.987,2.138 4.594,4.755m68.594,-2.615c0,0.165 0.597,0.67 0.792,0.67c0.112,0 0.009,-0.169 -0.229,-0.375c-0.434,-0.377 -0.563,-0.444 -0.563,-0.295m1.313,1.045c0.11,0.206 0.295,0.375 0.411,0.375c0.115,0 0.057,-0.169 -0.13,-0.375c-0.186,-0.207 -0.371,-0.375 -0.41,-0.375c-0.04,0 0.019,0.168 0.129,0.375m6.513,6.746c1.03,1.028 1.854,1.893 1.831,1.922c-0.024,0.028 0.199,0.248 0.495,0.488c0.295,0.24 0.537,0.391 0.537,0.336c0,-0.158 -4.438,-4.617 -4.596,-4.617c-0.078,0 0.702,0.842 1.733,1.871m-67.297,3.943c1.958,1.96 3.621,3.563 3.697,3.563c0.075,0 -1.458,-1.602 -3.409,-3.561c-1.95,-1.958 -3.613,-3.561 -3.696,-3.563c-0.083,-0.001 1.451,1.601 3.408,3.561m-40.449,-2.809c0.036,0.11 11.091,11.23 24.566,24.711c31.842,31.857 35.223,35.223 35.223,35.069c0,-0.071 -13.468,-13.596 -29.928,-30.055c-16.461,-16.459 -29.898,-29.836 -29.861,-29.725m113.996,5.262c0.237,0.37 0.551,0.672 0.698,0.672c0.199,0 0.178,-0.077 -0.08,-0.297c-0.191,-0.163 -0.505,-0.465 -0.698,-0.672c-0.243,-0.261 -0.219,-0.171 0.08,0.297m2.239,2.321c0.258,0.282 0.828,0.724 1.267,0.982c0.439,0.258 0.879,0.608 0.979,0.779c0.099,0.17 0.183,0.212 0.186,0.092c0.008,-0.271 -1.042,-1.169 -1.624,-1.39c-0.238,-0.091 -0.433,-0.248 -0.433,-0.35c0,-0.102 -0.189,-0.285 -0.422,-0.405c-0.404,-0.211 -0.402,-0.199 0.047,0.292m7.492,7.368c0.892,0.882 1.51,1.39 1.51,1.243c0,-0.166 -1.894,-1.946 -2.071,-1.946c-0.083,0 0.17,0.317 0.561,0.703m8.448,8.551c0,0.029 0.265,0.3 0.589,0.603c0.586,0.549 0.587,0.549 0.27,0.051c-0.259,-0.407 -0.859,-0.864 -0.859,-0.654m2.465,2.088c0.577,0.609 0.842,0.612 0.313,0.004c-0.224,-0.258 -0.485,-0.469 -0.581,-0.469c-0.095,0 0.025,0.209 0.268,0.465m0.762,1.027c0.258,0.414 0.44,0.362 0.272,-0.078c-0.061,-0.159 -0.199,-0.289 -0.306,-0.289c-0.124,0 -0.111,0.135 0.034,0.367m1.047,1.01c0.501,0.37 0.761,0.652 1.481,1.608c0.032,0.043 0.108,0.028 0.169,-0.032c0.138,-0.138 -1.763,-2.015 -2.041,-2.015c-0.113,0 0.063,0.198 0.391,0.439m1.727,2.168c0,0.092 0.296,0.343 0.657,0.556c0.361,0.213 0.656,0.465 0.656,0.561c0,0.095 0.128,0.223 0.286,0.283c0.233,0.09 0.249,0.042 0.087,-0.261c-0.109,-0.204 -0.259,-0.371 -0.333,-0.371c-0.073,0 -0.379,-0.211 -0.679,-0.469c-0.599,-0.516 -0.674,-0.549 -0.674,-0.299m6.095,5.644c0.389,0.309 0.633,0.563 0.541,0.564c-0.091,0 0.075,0.16 0.37,0.354c0.295,0.195 0.681,0.575 0.858,0.845c0.177,0.269 0.372,0.44 0.434,0.379c0.146,-0.147 -2.394,-2.705 -2.686,-2.705c-0.124,0 0.094,0.253 0.483,0.563m-68.917,2.12c0,0.07 1.435,1.568 3.188,3.329c1.753,1.762 3.187,3.134 3.185,3.049c-0.004,-0.184 -6.373,-6.558 -6.373,-6.378m74.195,3.416c0.062,0.161 0.155,0.252 0.206,0.201c0.051,-0.052 0.204,0.008 0.34,0.132c0.137,0.124 0.548,0.437 0.915,0.694c0.367,0.258 0.744,0.722 0.838,1.032c0.151,0.493 0.174,0.508 0.189,0.122c0.019,-0.516 -1.11,-1.677 -2.195,-2.258c-0.343,-0.183 -0.388,-0.172 -0.293,0.077m-56.87,14.061c5.627,5.621 10.29,10.22 10.363,10.22c0.187,0 -20.246,-20.433 -20.437,-20.437c-0.086,-0.002 4.447,4.596 10.074,10.217m63.455,-7.755c0.415,0.514 0.737,0.835 1.711,1.707c0.431,0.387 0.748,0.703 0.703,0.703c-0.098,0 0.725,0.852 1.435,1.486c1.245,1.111 0.318,0.007 -1.719,-2.049c-2.057,-2.076 -2.925,-2.829 -2.13,-1.847m-31.835,5.873c0.427,0.558 16.75,16.79 16.885,16.79c0.122,0 -16.311,-16.49 -16.859,-16.919c-0.28,-0.218 -0.282,-0.207 -0.026,0.129m39.58,1.991c0.236,0.37 0.55,0.672 0.698,0.672c0.198,0 0.178,-0.077 -0.08,-0.297c-0.191,-0.163 -0.505,-0.466 -0.698,-0.672c-0.243,-0.261 -0.219,-0.171 0.08,0.297m2.082,2.214c0.117,0.187 0.373,0.441 0.569,0.563c0.341,0.213 0.343,0.202 0.055,-0.238c-0.365,-0.557 -0.964,-0.869 -0.624,-0.325m1.282,1.052c0.129,0.155 0.345,0.282 0.481,0.282c0.137,0 0.38,0.187 0.54,0.416c0.161,0.23 0.292,0.321 0.292,0.205c0,-0.117 -0.26,-0.432 -0.577,-0.699c-0.631,-0.531 -1.119,-0.666 -0.736,-0.204m1.452,1.44c0.128,0.156 0.177,0.338 0.109,0.406c-0.067,0.068 -0.018,0.123 0.11,0.123c0.32,0 0.177,-0.603 -0.17,-0.718c-0.231,-0.076 -0.24,-0.042 -0.049,0.189m-63.859,7.347c0.958,0.965 1.777,1.724 1.821,1.687c0.103,-0.088 -3.221,-3.436 -3.415,-3.439c-0.081,-0.001 0.636,0.787 1.594,1.752m-34.531,3.027c2.003,2.012 3.711,3.657 3.795,3.657c0.084,0 -1.496,-1.645 -3.511,-3.656c-2.016,-2.012 -3.724,-3.657 -3.796,-3.657c-0.072,0 1.508,1.645 3.512,3.656m36.554,-1.145c0,0.169 6.147,6.303 6.316,6.303c0.068,0 -0.605,-0.721 -1.494,-1.603c-0.89,-0.881 -2.338,-2.33 -3.22,-3.219c-0.881,-0.89 -1.602,-1.556 -1.602,-1.481m-31.411,6.257c0.722,0.746 1.387,1.356 1.478,1.357c0.092,0.001 0.371,0.222 0.62,0.491c0.25,0.269 0.497,0.447 0.549,0.395c0.052,-0.052 -0.26,-0.378 -0.693,-0.724c-0.433,-0.346 -1.176,-1.011 -1.652,-1.477c-1.471,-1.442 -1.687,-1.472 -0.302,-0.042m107.817,-0.685c-0.079,0.128 -0.061,0.177 0.042,0.113c0.101,-0.061 0.34,0.154 0.532,0.48c0.192,0.325 0.381,0.498 0.419,0.384c0.109,-0.328 -0.826,-1.248 -0.993,-0.977m-37.213,0.06c0,0.169 1.177,1.245 1.265,1.156c0.052,-0.051 -0.163,-0.35 -0.477,-0.664c-0.527,-0.527 -0.788,-0.69 -0.788,-0.492m-32.135,1.702c0.434,0.741 0.443,0.752 0.443,0.521c0,-0.109 -0.174,-0.397 -0.386,-0.641l-0.386,-0.443l0.329,0.563m34.573,0.723c0,0.136 2.707,2.746 2.848,2.746c0.081,0 -0.486,-0.633 -1.26,-1.406c-1.275,-1.276 -1.588,-1.539 -1.588,-1.34m-34.833,0.401c-0.345,0.392 -0.286,0.511 0.14,0.283c0.207,-0.111 0.375,-0.283 0.375,-0.382c0,-0.258 -0.242,-0.211 -0.515,0.099m-34.677,1.126c0.485,0.465 0.982,0.844 1.106,0.844c0.124,0 -0.018,-0.19 -0.315,-0.422c-0.298,-0.232 -0.711,-0.611 -0.919,-0.844c-0.208,-0.232 -0.462,-0.421 -0.565,-0.421c-0.103,0 0.209,0.379 0.693,0.843m33.739,-0.524c-0.232,0.045 -0.422,0.16 -0.422,0.256c0,0.096 -0.121,0.175 -0.27,0.175c-0.149,0 -0.318,0.076 -0.375,0.17c-0.058,0.093 0.065,0.125 0.273,0.071c0.208,-0.055 0.424,-0.173 0.48,-0.264c0.056,-0.091 0.266,-0.165 0.466,-0.165c0.2,0 0.364,-0.084 0.364,-0.187c0,-0.104 -0.021,-0.176 -0.047,-0.162c-0.026,0.014 -0.237,0.062 -0.469,0.106m70.009,0.913c-0.34,0.34 -0.369,0.455 -0.114,0.455c0.1,0 0.271,-0.168 0.382,-0.375c0.241,-0.45 0.134,-0.482 -0.268,-0.08m-71.653,0.234c0.05,0.05 -0.055,0.209 -0.234,0.354c-0.293,0.237 -0.285,0.244 0.086,0.064c0.52,-0.251 0.687,-0.509 0.331,-0.509c-0.151,0 -0.233,0.041 -0.183,0.091m40.603,0.775c0,0.108 0.089,0.196 0.197,0.196c0.108,0 0.4,0.22 0.648,0.488c0.248,0.268 0.556,0.452 0.684,0.409c0.128,-0.042 -0.163,-0.35 -0.648,-0.684c-0.484,-0.333 -0.881,-0.517 -0.881,-0.409m28.428,0.665c-0.169,0.258 -0.234,0.469 -0.145,0.469c0.089,0 0.258,-0.211 0.375,-0.469c0.118,-0.258 0.183,-0.469 0.146,-0.469c-0.038,0 -0.207,0.211 -0.376,0.469m-70.622,-0.147c-0.154,0.057 -0.661,0.402 -1.125,0.767c-1.197,0.941 -1.271,1.016 -0.844,0.856c0.206,-0.078 0.614,-0.378 0.905,-0.668c0.292,-0.29 0.64,-0.526 0.774,-0.526c0.135,0 0.349,-0.127 0.478,-0.282c0.25,-0.301 0.243,-0.307 -0.188,-0.147m-27.567,0.219c0,0.091 0.169,0.21 0.376,0.264c0.442,0.116 0.509,-0.15 0.078,-0.316c-0.394,-0.151 -0.454,-0.144 -0.454,0.052m71.824,0.781c0.691,0.469 1.038,0.58 0.589,0.189c-0.244,-0.212 -0.539,-0.384 -0.656,-0.383c-0.118,0.002 -0.088,0.089 0.067,0.194m-70.511,0.143c0,0.101 0.134,0.234 0.297,0.297c0.183,0.07 0.268,0.028 0.223,-0.109c-0.094,-0.28 -0.52,-0.435 -0.52,-0.188m2.501,1.005c0.233,0.373 0.5,0.456 0.5,0.156c0,-0.103 -0.09,-0.188 -0.199,-0.188c-0.109,0 -0.155,-0.07 -0.102,-0.156c0.053,-0.086 -0.018,-0.156 -0.159,-0.156c-0.2,0 -0.209,0.073 -0.04,0.344m19.656,-0.106c-0.401,0.453 -0.099,0.529 0.37,0.093c0.287,-0.268 0.336,-0.391 0.153,-0.387c-0.149,0.004 -0.384,0.136 -0.523,0.294m-18.677,0.725c0.201,0.151 0.449,0.275 0.552,0.275c0.103,0 0.024,-0.124 -0.176,-0.275c-0.201,-0.152 -0.449,-0.276 -0.552,-0.276c-0.103,0 -0.024,0.124 0.176,0.276m2.756,0.604c0.18,0.047 0.475,0.047 0.656,0c0.18,-0.047 0.033,-0.086 -0.328,-0.086c-0.361,0 -0.509,0.039 -0.328,0.086m11.626,0c0.181,0.047 0.476,0.047 0.657,0c0.18,-0.047 0.032,-0.086 -0.328,-0.086c-0.361,0 -0.509,0.039 -0.329,0.086m58.134,0.005c0.284,0.043 0.748,0.043 1.032,0c0.283,-0.043 0.051,-0.078 -0.516,-0.078c-0.567,0 -0.799,0.035 -0.516,0.078m3.379,0.75c0.285,0.043 0.707,0.042 0.937,-0.002c0.231,-0.045 -0.002,-0.08 -0.518,-0.079c-0.516,0.002 -0.705,0.038 -0.419,0.081m5.998,-0.005c0.18,0.047 0.476,0.047 0.656,0c0.181,-0.047 0.033,-0.086 -0.328,-0.086c-0.361,0 -0.509,0.039 -0.328,0.086" fill="#fcfcfc" fill-rule="evenodd"/>
			</g>
		</g>
		<g id="svg_23">
			<g id="svg_19">
				<path id="svg_20" d="m229.08905,42.827051c0,0.118 -1.221,0.188 -3.289,0.188c-7.592,0 -17.264,0.892 -26.461,2.442c-60.425,10.181 -111.512,51.769 -134.066,109.138c-1.407,3.579 -4.773,13.379 -4.773,13.897c0,0.143 49.225,49.486 109.389,109.65l109.388,109.388l4.114,-1.347c85.212,-27.9 135.764,-114.45 118.124,-202.242c-14.276,-71.055 -71.407,-126.506 -142.676,-138.482c-2.387,-0.401 -4.825,-0.787 -5.418,-0.858l-1.078,-0.129l0,-0.916l0,-0.916l-11.627,0c-7.626,0 -11.627,0.064 -11.627,0.187m4.22,153.118c18.422,3.785 25.329,26.06 12.235,39.458c-14.63,14.97 -40.098,4.504 -40.116,-16.486c-0.013,-14.657 13.632,-25.9 27.881,-22.972" fill="#f4f4f4" fill-rule="evenodd"/>
			</g>
		</g>
		<ellipse fill="#6c94ac" stroke-width="null" stroke-opacity="null" fill-opacity="null" cx="228.793332" cy="218.903104" id="svg_36" rx="23.5" ry="23.5" stroke="null"/>
		<g id="svg_73">
			<path id="svg_74" d="m224.781,79.315121c-43.756,1.928 -84.672,26.228 -107.795,64.019c-2.134,3.488 -7.32,13.033 -7.333,13.497c-0.005,0.165 -0.105,0.3 -0.223,0.3c-0.118,0 -0.147,0.108 -0.066,0.24c0.082,0.132 0.052,0.24 -0.065,0.24c-0.118,0 -0.22,0.135 -0.228,0.3c-0.007,0.165 -0.187,0.944 -0.4,1.73c-1.28,4.736 0.757,10.048 4.921,12.828c6.543,4.37 15.638,1.141 17.962,-6.377c1.512,-4.892 8.774,-16.223 15.361,-23.967c39.446,-46.375 110.333,-51.581 155.971,-11.454c59.344,52.179 47.054,146.075 -23.804,181.863c-5.021,2.536 -6.625,3.92 -8.006,6.911c-4.234,9.163 4.171,19.181 13.813,16.463c5.835,-1.644 17.852,-8.44 26.755,-15.13c67.828,-50.967 72.376,-150.084 9.508,-207.236c-25.872,-23.52 -60.474,-35.809 -96.371,-34.227" fill="#dcdcdc" fill-rule="evenodd"/>
		</g>
		<g id="svg_33">
			<g id="svg_30">
				<path id="svg_32" d="m229.07012,60.113261l0.046,17.58l0.049,-17.485l0.049,-17.486l11.672,-0.05l11.673,-0.049l-11.767,-0.046l-11.768,-0.045l0.046,17.581m90.437,-8.392c0.613,0.618 1.156,1.125 1.207,1.125c0.052,0 -0.407,-0.507 -1.019,-1.125c-0.613,-0.619 -1.156,-1.126 -1.207,-1.126c-0.052,0 0.407,0.507 1.019,1.126m9.283,39.38l0,17.44l-22.644,0.047l-22.644,0.048l-0.001,54.477l0,54.477l0.047,-54.43l0.048,-54.43l22.691,0l22.69,0l0,-17.534c0,-9.644 -0.042,-17.534 -0.093,-17.534c-0.052,0 -0.094,7.847 -0.094,17.439m-102.25,73.082c0.232,0.045 0.611,0.045 0.843,0c0.232,-0.045 0.043,-0.081 -0.422,-0.081c-0.464,0 -0.654,0.036 -0.421,0.081m3.75,0c0.232,0.045 0.612,0.045 0.844,0c0.232,-0.045 0.042,-0.081 -0.422,-0.081c-0.464,0 -0.654,0.036 -0.422,0.081m-37.564,13.417l-0.551,0.609l0.609,-0.551c0.335,-0.303 0.61,-0.577 0.61,-0.609c0,-0.145 -0.155,-0.017 -0.668,0.551m-2.805,2.625l-1.872,1.922l1.922,-1.872c1.058,-1.029 1.922,-1.894 1.922,-1.922c0,-0.135 -0.234,0.087 -1.972,1.872m15.334,38.678c0.002,0.413 0.041,0.559 0.086,0.326c0.045,-0.233 0.043,-0.571 -0.004,-0.75c-0.047,-0.179 -0.084,0.011 -0.082,0.424m78.204,1.782c0,0.464 0.036,0.654 0.081,0.421c0.045,-0.232 0.045,-0.611 0,-0.843c-0.045,-0.232 -0.081,-0.043 -0.081,0.422m-55.042,21.698c0.233,0.045 0.571,0.043 0.75,-0.004c0.179,-0.047 -0.011,-0.083 -0.424,-0.081c-0.413,0.002 -0.559,0.04 -0.326,0.085m41.571,12.479l-0.551,0.609l0.609,-0.551c0.568,-0.513 0.696,-0.668 0.551,-0.668c-0.032,0 -0.306,0.275 -0.609,0.61m-82.595,0.012c0,0.032 0.274,0.306 0.609,0.609l0.61,0.551l-0.551,-0.61c-0.513,-0.568 -0.668,-0.695 -0.668,-0.55m79.978,2.801l-1.872,1.922l1.922,-1.872c1.785,-1.738 2.007,-1.972 1.872,-1.972c-0.028,0 -0.893,0.864 -1.922,1.922m-77.915,-0.551c0,0.032 0.274,0.306 0.609,0.609l0.61,0.551l-0.551,-0.609c-0.514,-0.568 -0.668,-0.696 -0.668,-0.551m2.25,2.063c0,0.032 0.274,0.306 0.609,0.609l0.61,0.551l-0.551,-0.609c-0.513,-0.569 -0.668,-0.696 -0.668,-0.551m36.618,14.515c0.285,0.043 0.707,0.042 0.937,-0.002c0.231,-0.045 -0.002,-0.08 -0.518,-0.079c-0.516,0.002 -0.704,0.038 -0.419,0.081" fill="#f3f3f3" fill-rule="evenodd"/>
				<path id="svg_31" d="m252.37612,42.713261c-0.067,0.108 -0.173,28.639 -0.234,63.401c-0.081,45.465 -0.169,63.179 -0.316,63.115c-37.289,-16.243 -77.549,9.417 -77.642,49.486c-0.089,38.133 37.469,64.551 73.312,51.569c18.042,-6.534 31.454,-22.345 35.076,-41.348c0.876,-4.596 0.842,-1.363 0.836,-80.778l-0.006,-74.496l22.707,0l22.707,0l-0.121,-1.548c-1.153,-14.797 -11.352,-26.282 -25.799,-29.051c-2.443,-0.468 -50.243,-0.8 -50.52,-0.35m-19.132,153.124c18.408,3.782 25.319,26.071 12.235,39.458c-14.63,14.97 -40.098,4.504 -40.116,-16.486c-0.013,-14.657 13.632,-25.9 27.881,-22.972" fill="#2e2e2e" fill-rule="evenodd"/>
			</g>
		</g>
	</g>
</svg>